<?xml version="1.0" encoding="UTF-8" standalone="no"?><!DOCTYPE svg PUBLIC "-//W3C//DTD SVG 1.1//EN" "http://www.w3.org/Graphics/SVG/1.1/DTD/svg11.dtd"><svg width="100%" height="100%" viewBox="0 0 512 512" version="1.1" xmlns="http://www.w3.org/2000/svg" xmlns:xlink="http://www.w3.org/1999/xlink" xml:space="preserve" xmlns:serif="http://www.serif.com/" style="fill-rule:evenodd;clip-rule:evenodd;stroke-linejoin:round;stroke-miterlimit:2;"><g id="fav-icon"><circle cx="256" cy="256" r="256" style="fill:url(#_Linear1);"/><g id="Canister"><path d="M396.726,221.282c-2.508,127.792 -2.317,127.801 -2.759,133.64c-2.771,36.619 -30.138,65.555 -63.336,65.243c-16.856,-0.158 -16.843,-0.722 -210.652,-4.733c-14.112,-0.292 -24.52,-5.847 -31.902,-11.689c-14.454,-11.438 -24.342,-31.435 -23.882,-53.624l2.599,-130.367l-0.016,-0c0.246,-9.92 0.649,-39.485 21.624,-72.285c10.526,-16.459 22.799,-27.213 25.378,-29.621c3.356,-3.133 6.086,-5.52 13.81,-11.546c1.292,-1.009 5.207,-4.185 15.8,-10.964c28.038,-17.943 57.582,-23.309 58.985,-23.592c4.005,-0.807 12.469,-2.472 24.512,-3.276c0.829,-0.055 7.625,-0.169 14.691,0.292c60.177,3.924 105.629,36.782 130.016,73.627c4.462,6.741 22.189,33.525 25.002,72.243c0.146,2.014 0.16,6.12 0.162,6.652c-0.011,0 -0.021,0 -0.032,0Zm-43.5,1.372c-0.039,-0.761 -0.063,-1.573 -0.072,-2.438c-0.004,-0.41 -0.032,-0.406 -0.103,-5.122c-0.908,-60.361 -54.611,-114.443 -125.574,-118.484c-1.352,-0.077 -1.347,-0.104 -2.695,-0.234l0.081,-0c-6.932,-0.555 -24.008,-1.956 -46.039,2.773c-6.676,1.433 -13.651,3.813 -14.818,4.211c-8.133,2.775 -14.067,5.605 -16.362,6.706c-1.545,0.741 -10.255,5.468 -15.641,9.465c-7.445,5.525 -11.597,9.661 -12.527,10.587c-21.102,21.014 -37.268,51.04 -36.718,87.79c0.023,1.482 0.036,1.79 0.015,2.365l0.009,-0.202c2.562,129.241 2.226,129.268 2.943,135.108c2.504,20.409 16.967,36.139 33.852,35.896l210.698,-4.736c0.949,-0 12.073,-0.111 20.256,-12.701c6.89,-10.599 6.268,-21.95 6.233,-23.569l-0,0.126l-3.538,-127.541Z" style="fill:#0c1014;"/><path d="M67.425,116.794c3.323,-9.138 9.135,-16.033 10.168,-17.258c9.435,-11.192 24.125,-19.948 41.928,-21.476c5.755,-0.494 5.741,-0.749 6.232,-0.649c1.892,0.384 3.892,0.413 5.674,1.155c1.729,0.72 3.331,1.821 4.655,3.145c1.324,1.324 2.425,2.926 3.145,4.655c0.006,0.016 1.157,5.685 1.155,5.694c-0.384,1.891 -0.413,3.892 -1.155,5.673c-0.72,1.729 -1.821,3.331 -3.145,4.655c-1.324,1.324 -2.926,2.425 -4.655,3.145c-1.782,0.742 -3.746,1.065 -5.674,1.155c-0.26,0.012 -7.758,-0.916 -10.043,-0.977c-17.967,-0.483 -34.946,12.137 -39.437,32.125c-2.809,12.502 -2.317,12.633 -2.814,13.629c-0.708,1.416 -1.232,2.94 -2.125,4.247c-0.376,0.55 -0.994,0.921 -1.599,1.201c-0.018,0.008 -1.72,0.33 -1.728,0.327c-0.537,-0.219 -1.142,-0.317 -1.61,-0.659c-0.426,-0.312 -2.263,-1.655 -2.579,-6.074c-0.383,-5.366 -0.082,-14.367 -0.041,-15.616c0.329,-9.849 3.387,-17.38 3.648,-18.097Z" style="fill:#0c1014;"/><path d="M224.52,123.894c5.548,0.03 42.002,-0.721 74.536,28.577c23.918,21.54 31.475,45.933 34.09,55.47c0.435,1.587 2.589,9.445 3.706,20.229c0.447,4.306 0.348,4.885 0.663,9.513c0.511,7.512 0.276,11.435 -0.081,18.236c-0.019,0.363 -0.225,9.47 -3.369,22.907c-2.785,11.907 -8.697,27.459 -18.748,41.429c-6.399,8.895 -11.14,13.448 -14.073,16.437c-0.205,0.209 -3.473,3.247 -6.994,6.113c-2.459,2.001 -9.809,7.673 -16.68,11.365c-9.522,5.117 -20.021,8.899 -26.067,10.38c-8.552,2.096 -14.596,2.886 -21.856,3.242c-1.96,0.096 -11.95,0.709 -26.552,-1.877c-0.681,-0.121 -9.672,-1.773 -19.655,-5.425c-3.036,-1.111 -37.081,-12.748 -60.377,-47.222c-21.906,-32.417 -21.914,-63.015 -21.707,-73.036c0.217,-10.526 2.035,-32.653 14.774,-55.753c18.658,-33.836 49.049,-52.105 75.95,-58.119c13.907,-3.109 24.842,-2.979 32.44,-2.466Zm0.008,11.972c-3.632,0.328 -34.437,1.919 -60.237,27.356c-9.511,9.378 -16.956,20.689 -21.715,33.136c-7.639,19.982 -6.037,36.909 -5.845,39.888l0,-0.111c0.456,5.489 2.491,33.984 26.671,56.979c1.573,1.495 13.421,13.611 32.475,19.577c4.211,1.318 7.403,2.437 15.451,3.539l-0,-0.002c5.315,0.731 8.207,0.88 13.273,0.832c5.671,0.031 6.282,-0.176 8.76,-0.344c3.91,-0.266 5.22,-0.415 8.905,-1.021l0.001,0.007c9.271,-1.237 13.076,-2.776 18.369,-4.496c3.764,-1.222 9.287,-3.217 18.134,-8.341c16.694,-9.667 26.319,-23.011 27.089,-24.029c6.928,-9.169 9.885,-16.551 10.753,-18.64c2.528,-6.088 3.347,-9.508 3.552,-10.36c1.689,-7.051 2.159,-12.571 2.272,-13.669c0.001,0.008 0,0.038 -0,0.047c0.269,-7.27 0.034,-16.475 -3.461,-29.068c-2.286,-8.233 -6.01,-15.629 -6.664,-16.929c-7.232,-14.361 -18.521,-28.242 -34.847,-38.736c-24.116,-15.502 -47.037,-15.553 -52.936,-15.615Z" style="fill:#0c1014;"/></g><path id="Tape-End" serif:id="Tape End" d="M432.542,340.772c-6.173,-0.484 -12.347,-0.952 -18.516,-1.476c-2.114,-0.179 -2.112,-0.193 -26.406,-2.423l-0,-8.942l26.406,-2.424c3.784,-0.323 28.148,-2.27 28.426,-2.279c0.539,-0.018 1.08,-0.048 1.617,0c2.542,0.227 4.319,1.486 4.642,1.715c3.784,2.68 4.062,6.779 4.108,7.459c0.484,7.123 0.96,22.333 1.021,24.276c0.073,2.342 0.473,15.123 -0.036,29.296c-0.057,1.6 -0.623,17.33 -0.87,19.991c-0.185,1.98 -0.739,3.24 -0.855,3.504c-0.114,0.258 -0.721,1.638 -1.96,2.929c-0.371,0.386 -2.525,2.629 -6.015,2.937c-0.549,0.048 -1.102,0.038 -1.652,0.004c-10.452,-0.656 -35.724,-2.797 -38.829,-3.06l-16.223,-1.507l0,-9.615l16.223,-1.507c9.318,-0.968 18.629,-2.004 27.943,-3.011c-0.164,-3.554 -0.331,-7.109 -0.466,-10.665c-0.375,-9.816 -0.216,-20.281 -0.19,-22.044c0.037,-2.418 -0.027,-4.841 0.154,-7.252c0.398,-5.31 0.964,-10.606 1.478,-15.906Z" style="fill:#0c1014;"/></g><defs><linearGradient id="_Linear1" x1="0" y1="0" x2="1" y2="0" gradientUnits="userSpaceOnUse" gradientTransform="matrix(3.1351e-14,512,-512,3.1351e-14,256,0)"><stop offset="0" style="stop-color:#5bbe5d;stop-opacity:1"/><stop offset="1" style="stop-color:#48b44b;stop-opacity:1"/></linearGradient></defs></svg>